# xmcd
#
# Track frame offsets:
#  150
#  19510
#  38012
#  53215
#  71525
#  86302
#  101813
#  121335
#  141847
#  160180
#  178217
#  195117
#  214722
#  230942
#  287247
#
# Disc length: 4440 seconds
#
# Revision: 1
# Processed by: cddbd v1.5.1PL2 Copyright (c) Steve Scherf et al.
# Submitted via: Collectorz.com_Music_Collector 6.9
#
DISCID=d011560f
DTITLE=Oosterhuis, Trijntje - Trijntje Oosterhuis
DYEAR=2003
DGENRE=Jazz
TTITLE0=Free
TTITLE1=Whatever you want
TTITLE2=What about us
TTITLE3=In this together
TTITLE4=It's you I need
TTITLE5=All that and more
TTITLE6=Lie to me
TTITLE7=To see your face again
TTITLE8=Don't say that you love me
TTITLE9=All around the world
TTITLE10=Little something
TTITLE11=Blind
TTITLE12=Better
TTITLE13=This goodbye
TTITLE14=All thousand days
EXTD=
EXTT0=
EXTT1=
EXTT2=
EXTT3=
EXTT4=
EXTT5=
EXTT6=
EXTT7=
EXTT8=
EXTT9=
EXTT10=
EXTT11=
EXTT12=
EXTT13=
EXTT14=
PLAYORDER=
